<svg width="16" height="16" viewBox="0 0 16 16" fill="none" xmlns="http://www.w3.org/2000/svg">
  <rect x="0.5" y="2.5" width="15" height="11" rx="1.5" stroke="#424242" stroke-width="1"/>
  <path d="M11 4.5V8.5C11 8.776 10.776 9 10.5 9H5L6 10C6.195 10.195 6.195 10.513 6 10.708C5.805 10.903 5.487 10.903 5.292 10.708L3.292 8.708C3.097 8.513 3.097 8.195 3.292 8L5.292 6C5.487 5.805 5.805 5.805 6 6C6.195 6.195 6.195 6.513 6 6.708L5 7.7H9.5V4.5C9.5 4.224 9.724 4 10 4C10.276 4 10.5 4.224 10.5 4.5V4.5Z" fill="#424242" stroke="#424242" stroke-width="0.5"/>
</svg> 